<svg xmlns="http://www.w3.org/2000/svg" width="26" height="25">
    <defs>
        <filter id="bsskkbzjta">
            <feFlood flood-color="#FFF" flood-opacity="1" result="floodOut"/>
            <feComposite in="floodOut" in2="SourceGraphic" operator="atop" result="compOut"/>
            <feBlend in="compOut" in2="SourceGraphic"/>
        </filter>
    </defs>
    <g filter="url(#bsskkbzjta)">
        <path fill-rule="evenodd" d="M25.456 24.172c-.321.317-.742.474-1.163.474-.42 0-.842-.157-1.163-.474l-4.335-4.271c-1.893 1.447-4.26 2.317-6.836 2.317-6.166 0-11.182-4.942-11.182-11.016S5.793.186 11.959.186s11.182 4.942 11.182 11.016c0 2.37-.771 4.562-2.068 6.361l4.383 4.318c.642.633.642 1.659 0 2.291zM11.96 2.778c-4.715 0-8.551 3.779-8.551 8.424s3.836 8.424 8.551 8.425c2.104 0 4.03-.756 5.521-2.003.46-.384.874-.819 1.243-1.288 1.116-1.423 1.786-3.201 1.786-5.134 0-4.645-3.836-8.424-8.55-8.424zm4.85 6.803c-.185.087-.381.13-.576.13-.487 0-.954-.267-1.182-.728-.705-1.424-2.141-2.309-3.748-2.309-.726 0-1.315-.58-1.315-1.297 0-.714.589-1.295 1.315-1.295 2.621 0 4.964 1.443 6.113 3.765.318.644.047 1.42-.607 1.734z"/>
    </g>
</svg>
