<svg xmlns="http://www.w3.org/2000/svg" width="18" height="24">
    <defs>
        <filter id="1x48d3jyqa">
            <feFlood flood-color="#FFF" flood-opacity="1" result="floodOut"/>
            <feComposite in="floodOut" in2="SourceGraphic" operator="atop" result="compOut"/>
            <feBlend in="compOut" in2="SourceGraphic"/>
        </filter>
    </defs>
    <g filter="url(#1x48d3jyqa)">
        <path fill-rule="evenodd" d="M14.995 2.999h-1.499c0-1.657-2.013-3.001-4.497-3.001-2.485 0-4.498 1.344-4.498 3.001H3.002C1.346 2.999.003 4.341.003 5.997v14.998c0 1.656 1.343 2.999 2.999 2.999h11.993c1.657 0 2.999-1.343 2.999-2.999V5.997c0-1.656-1.342-2.998-2.999-2.998zM8.999 1.498c1.656 0 2.998.464 2.998 1.501H6c0-1.037 1.343-1.501 2.999-1.501zm7.496 19.497c0 .828-.671 1.499-1.5 1.499H3.002c-.828 0-1.5-.671-1.5-1.499v-1.5h14.993v1.5zm0-3H1.502V5.997c0-.828.672-1.5 1.5-1.5h1.499v4.501H6V4.497h5.997v4.501h1.499V4.497h1.499c.829 0 1.5.672 1.5 1.5v11.998z"/>
    </g>
</svg>
