<svg xmlns="http://www.w3.org/2000/svg" width="52" height="36">
    <defs>
        <filter id="hswy217oxa">
            <feFlood flood-color="#555" flood-opacity="1" result="floodOut"/>
            <feComposite in="floodOut" in2="SourceGraphic" operator="atop" result="compOut"/>
            <feBlend in="compOut" in2="SourceGraphic"/>
        </filter>
    </defs>
    <g filter="url(#hswy217oxa)">
        <path fill-rule="evenodd" d="M51.411 14.341l-9.49 19.422c-.595 1.221-2.192 2.221-3.543 2.221H3.08c-1.35 0-1.968-1.002-1.369-2.221l9.492-19.422c.593-1.223 2.189-2.226 3.539-2.226H50.04c1.354 0 1.969 1.003 1.371 2.226zM9 13.245L.738 30.147V7.983c0-1.364 1.105-2.482 2.458-2.481h10.816V4.058c0-.995.382-1.923 1.082-2.628.699-.707 1.623-1.095 2.607-1.095h6.29c2.029 0 3.684 1.667 3.684 3.723v1.443h10.816c1.351 0 2.458 1.118 2.458 2.482v1.654H14.742c-2.267 0-4.74 1.55-5.742 3.608zm7.47-7.743h8.747V4.058c0-.688-.55-1.243-1.228-1.243h-6.291c-.326 0-.635.13-.866.368-.23.234-.362.547-.362.875v1.444z"/>
    </g>
</svg>
