<svg xmlns="http://www.w3.org/2000/svg" width="44" height="44">
    <defs>
        <filter id="qt30a6fvea">
            <feFlood flood-color="#555" flood-opacity="1" result="floodOut"/>
            <feComposite in="floodOut" in2="SourceGraphic" operator="atop" result="compOut"/>
            <feBlend in="compOut" in2="SourceGraphic"/>
        </filter>
    </defs>
    <g filter="url(#qt30a6fvea)">
        <path fill-rule="evenodd" d="M43.927 21.85c0-1.62-1.166-3.349-2.605-3.857-1.44-.51-2.835-1.758-3.241-2.742-.406-.982-.3-2.855.355-4.234.656-1.379.259-3.426-.886-4.574-1.146-1.146-3.193-1.541-4.573-.885-1.38.656-3.25.764-4.231.357-.981-.405-2.229-1.803-2.741-3.242S23.764.067 22.144.067c-1.621 0-3.35 1.167-3.862 2.606-.512 1.439-1.76 2.836-2.741 3.242-.981.407-2.851.299-4.231-.357-1.378-.656-3.427-.261-4.573.885-1.145 1.148-1.542 3.195-.886 4.574.656 1.38.76 3.249.353 4.233-.408.982-1.799 2.233-3.238 2.743C1.526 18.501.36 20.23.36 21.85c0 1.621 1.166 3.349 2.606 3.861 1.439.512 2.832 1.763 3.24 2.743.408.98.301 2.85-.355 4.229-.656 1.379-.259 3.427.886 4.572 1.146 1.147 3.193 1.544 4.573.887 1.38-.656 3.25-.761 4.231-.353.982.407 2.229 1.805 2.741 3.243.512 1.436 2.241 2.601 3.862 2.601 1.62 0 3.349-1.165 3.861-2.601.512-1.438 1.758-2.836 2.739-3.246.981-.408 2.853-.3 4.233.356 1.379.657 3.427.26 4.573-.887 1.145-1.145 1.542-3.193.886-4.572-.655-1.379-.763-3.25-.357-4.23.406-.981 1.803-2.23 3.243-2.742 1.439-.512 2.605-2.24 2.605-3.861zm-21.783 7.992c-4.42 0-7.994-3.572-7.994-7.983 0-4.419 3.574-7.994 7.994-7.994 4.41 0 7.984 3.575 7.984 7.994 0 4.411-3.574 7.983-7.984 7.983z"/>
    </g>
</svg>
