<svg xmlns="http://www.w3.org/2000/svg" width="26" height="26">
    <defs>
        <filter id="2sjg85hrha">
            <feFlood flood-color="#C7B299" flood-opacity="1" result="floodOut"/>
            <feComposite in="floodOut" in2="SourceGraphic" operator="atop" result="compOut"/>
            <feBlend in="compOut" in2="SourceGraphic"/>
        </filter>
    </defs>
    <g filter="url(#2sjg85hrha)">
        <path fill-rule="evenodd" d="M23.499 11.242l-1.926 1.928-3.187 3.189c-.153.17-.341.324-.511.46-1.773 1.398-4.125 1.705-6.153.905-.75-.291-1.466-.751-2.079-1.365l2.641-2.644c.955.955 2.506.955 3.46 0l2.028-2.029 3.085-3.087c.955-.955.955-2.508 0-3.462-.954-.955-2.505-.955-3.46 0l-2.454 2.456c-1.534-.716-3.289-.836-4.908-.376l4.721-4.723c2.403-2.405 6.34-2.405 8.743 0 2.42 2.421 2.42 6.343 0 8.748zm-9.237-2.949c.749.289 1.465.749 2.079 1.363l-2.642 2.645c-.954-.956-2.505-.956-3.46 0l-5.113 5.115c-.955.956-.955 2.506 0 3.462.954.956 2.505.956 3.46 0l2.352-2.354c2.011.803 2.557.87 4.908.325l-4.618 4.672c-2.403 2.406-6.341 2.406-8.744 0-2.403-2.404-2.403-6.343 0-8.747l5.113-5.118c.068-.067.154-.153.239-.221 1.789-1.604 4.295-1.996 6.426-1.142z"/>
    </g>
</svg>
