<svg xmlns="http://www.w3.org/2000/svg" width="100" height="100"><defs><filter id="a"><feFlood flood-color="#FFF" flood-opacity="1" result="floodOut"/><feComposite in="floodOut" in2="SourceGraphic" operator="atop" result="compOut"/><feBlend in="compOut" in2="SourceGraphic"/></filter></defs><path fill-rule="evenodd" d="M50 0c27.614 0 50 22.386 50 50s-22.386 50-50 50S0 77.614 0 50 22.386 0 50 0z" opacity=".2"/><g filter="url(#a)"><path fill-rule="evenodd" d="M46.253 33.653l17.714 14.762a2.06 2.06 0 010 3.165L46.253 66.343a2.061 2.061 0 01-3.379-1.583V35.235a2.06 2.06 0 013.379-1.582zm.741 26.709l12.437-10.365-12.437-10.364v20.729zm27.765 14.397c-6.726 6.725-15.733 10.239-24.822 10.239a34.804 34.804 0 01-17.106-4.47 2.06 2.06 0 112.021-3.59c12.018 6.765 27.23 4.673 36.993-5.093 12.047-12.047 12.047-31.648 0-43.695-12.047-12.049-31.649-12.048-43.695 0-12.046 12.047-12.046 31.648 0 43.695a2.06 2.06 0 11-2.913 2.914c-13.653-13.654-13.653-35.869 0-49.523 13.654-13.652 35.867-13.653 49.522 0 13.653 13.654 13.653 35.869 0 49.523z"/></g></svg>