<svg xmlns="http://www.w3.org/2000/svg" width="26" height="26"><defs><filter id="a"><feFlood flood-color="#C7B299" flood-opacity="1" result="floodOut"/><feComposite in="floodOut" in2="SourceGraphic" operator="atop" result="compOut"/><feBlend in="compOut" in2="SourceGraphic"/></filter></defs><g filter="url(#a)"><path fill-rule="evenodd" d="M23.499 11.242l-1.926 1.928-3.187 3.189c-.153.17-.341.324-.511.46a6.244 6.244 0 01-6.153.905 6.036 6.036 0 01-2.079-1.365l2.641-2.644a2.447 2.447 0 003.46 0l2.028-2.029 3.085-3.087a2.447 2.447 0 00-3.46-3.462l-2.454 2.456a7.071 7.071 0 00-4.908-.376l4.721-4.723c2.403-2.405 6.34-2.405 8.743 0 2.42 2.421 2.42 6.343 0 8.748zm-9.237-2.949a6.02 6.02 0 012.079 1.363l-2.642 2.645a2.446 2.446 0 00-3.46 0l-5.113 5.115a2.45 2.45 0 000 3.462 2.446 2.446 0 003.46 0l2.352-2.354c2.011.803 2.557.87 4.908.325l-4.618 4.672c-2.403 2.406-6.341 2.406-8.744 0-2.403-2.404-2.403-6.343 0-8.747l5.113-5.118c.068-.067.154-.153.239-.221a6.19 6.19 0 016.426-1.142z"/></g></svg>