<svg xmlns="http://www.w3.org/2000/svg" width="26" height="25"><defs><filter id="a"><feFlood flood-color="#FFF" flood-opacity="1" result="floodOut"/><feComposite in="floodOut" in2="SourceGraphic" operator="atop" result="compOut"/><feBlend in="compOut" in2="SourceGraphic"/></filter></defs><g filter="url(#a)"><path fill-rule="evenodd" d="M25.456 24.172a1.649 1.649 0 01-1.163.474 1.65 1.65 0 01-1.163-.474l-4.335-4.271a11.219 11.219 0 01-6.836 2.317C5.793 22.218.777 17.276.777 11.202S5.793.186 11.959.186s11.182 4.942 11.182 11.016c0 2.37-.771 4.562-2.068 6.361l4.383 4.318a1.603 1.603 0 010 2.291zM11.96 2.778c-4.715 0-8.551 3.779-8.551 8.424s3.836 8.424 8.551 8.425a8.58 8.58 0 006.764-3.291 8.29 8.29 0 001.786-5.134c0-4.645-3.836-8.424-8.55-8.424zm4.85 6.803c-.185.087-.381.13-.576.13-.487 0-.954-.267-1.182-.728a4.148 4.148 0 00-3.748-2.309c-.726 0-1.315-.58-1.315-1.297 0-.714.589-1.295 1.315-1.295 2.621 0 4.964 1.443 6.113 3.765.318.644.047 1.42-.607 1.734z"/></g></svg>