<svg xmlns="http://www.w3.org/2000/svg" width="49" height="49"><defs><filter id="a"><feFlood flood-color="#555" flood-opacity="1" result="floodOut"/><feComposite in="floodOut" in2="SourceGraphic" operator="atop" result="compOut"/><feBlend in="compOut" in2="SourceGraphic"/></filter></defs><g filter="url(#a)"><path fill-rule="evenodd" d="M47.668 19.717L33.402 33.985.534 48.463l14.477-32.872L29.279 1.327a1.59 1.59 0 112.248 2.249L17.683 17.422 9.107 36.888l2.999 2.999 19.467-8.573L45.42 17.47a1.586 1.586 0 012.248 0c.621.62.621 1.63 0 2.247zm-17.923 8.749a1.596 1.596 0 01-2.25 0 1.593 1.593 0 010-2.25l13.332-13.331a1.584 1.584 0 012.25 0c.623.62.623 1.625 0 2.249L29.745 28.466zm-3.48-3.481a1.592 1.592 0 01-2.25-2.25L37.348 9.403a1.592 1.592 0 012.25 2.25L26.265 24.985zm-3.481-3.483c-.311.312-.719.466-1.125.466s-.814-.154-1.125-.466a1.592 1.592 0 010-2.249L33.867 5.922a1.586 1.586 0 012.25 0 1.59 1.59 0 010 2.25l-13.333 13.33z"/></g></svg>