<svg xmlns="http://www.w3.org/2000/svg" width="24" height="24">
    <defs>
        <filter id="lsdolzvdda">
            <feFlood flood-color="#FFF" flood-opacity="1" result="floodOut"/>
            <feComposite in="floodOut" in2="SourceGraphic" operator="atop" result="compOut"/>
            <feBlend in="compOut" in2="SourceGraphic"/>
        </filter>
    </defs>
    <g filter="url(#lsdolzvdda)">
        <path fill-rule="evenodd" d="M23.762 22.681l-6.193-6.095c1.621-1.761 2.618-4.092 2.618-6.657-.001-5.486-4.519-9.931-10.094-9.931C4.519-.002.001 4.443.001 9.929c0 5.487 4.518 9.933 10.092 9.933 2.409 0 4.618-.834 6.353-2.218l6.217 6.119c.303.299.795.299 1.098 0 .304-.299.304-.784.001-1.082zm-13.669-4.347c-4.716 0-8.54-3.762-8.54-8.405 0-4.641 3.824-8.404 8.54-8.404 4.717 0 8.54 3.763 8.54 8.404 0 4.643-3.823 8.405-8.54 8.405z"/>
    </g>
</svg>
