<svg xmlns="http://www.w3.org/2000/svg" width="49" height="49">
    <defs>
        <filter id="ly97mahe5a">
            <feFlood flood-color="#555" flood-opacity="1" result="floodOut"/>
            <feComposite in="floodOut" in2="SourceGraphic" operator="atop" result="compOut"/>
            <feBlend in="compOut" in2="SourceGraphic"/>
        </filter>
    </defs>
    <g filter="url(#ly97mahe5a)">
        <path fill-rule="evenodd" d="M47.668 19.717L33.402 33.985.534 48.463l14.477-32.872L29.279 1.327c.619-.621 1.625-.621 2.248 0 .621.623.621 1.628 0 2.249L17.683 17.422 9.107 36.888l2.999 2.999 19.467-8.573L45.42 17.47c.619-.623 1.623-.623 2.248 0 .621.62.621 1.63 0 2.247zm-17.923 8.749c-.311.307-.717.465-1.125.465-.409 0-.815-.158-1.125-.465-.62-.623-.62-1.63 0-2.25l13.332-13.331c.623-.625 1.627-.625 2.25 0 .623.62.623 1.625 0 2.249L29.745 28.466zm-3.48-3.481c-.31.308-.716.465-1.125.465-.406 0-.814-.157-1.125-.465-.621-.621-.621-1.631 0-2.25L37.348 9.403c.622-.623 1.626-.623 2.25 0 .621.62.621 1.627 0 2.25L26.265 24.985zm-3.481-3.483c-.311.312-.719.466-1.125.466s-.814-.154-1.125-.466c-.62-.619-.62-1.629 0-2.249L33.867 5.922c.623-.624 1.628-.624 2.25 0 .622.62.622 1.626 0 2.25l-13.333 13.33z"/>
    </g>
</svg>
