<svg xmlns="http://www.w3.org/2000/svg" width="100" height="100">
    <defs>
        <filter id="oxy36uprca">
            <feFlood flood-color="#FFF" flood-opacity="1" result="floodOut"/>
            <feComposite in="floodOut" in2="SourceGraphic" operator="atop" result="compOut"/>
            <feBlend in="compOut" in2="SourceGraphic"/>
        </filter>
    </defs>
    <path fill-rule="evenodd" d="M50 0c27.614 0 50 22.386 50 50s-22.386 50-50 50S0 77.614 0 50 22.386 0 50 0z" opacity=".2"/>
    <g filter="url(#oxy36uprca)">
        <path fill-rule="evenodd" d="M46.253 33.653l17.714 14.762c.47.392.742.971.742 1.582 0 .612-.272 1.191-.742 1.583L46.253 66.343c-.377.314-.846.477-1.319.477-.296 0-.595-.065-.874-.194-.723-.339-1.186-1.067-1.186-1.866V35.235c0-.799.463-1.527 1.186-1.865.723-.34 1.58-.229 2.193.283zm.741 26.709l12.437-10.365-12.437-10.364v20.729zm27.765 14.397c-6.726 6.725-15.733 10.239-24.822 10.239-5.865.001-11.764-1.462-17.106-4.47-.992-.558-1.343-1.815-.785-2.806.558-.991 1.814-1.343 2.806-.784 12.018 6.765 27.23 4.673 36.993-5.093 12.047-12.047 12.047-31.648 0-43.695-12.047-12.049-31.649-12.048-43.695 0-12.046 12.047-12.046 31.648 0 43.695.805.805.805 2.109 0 2.914-.803.804-2.108.804-2.913 0-13.653-13.654-13.653-35.869 0-49.523 13.654-13.652 35.867-13.653 49.522 0 13.653 13.654 13.653 35.869 0 49.523z"/>
    </g>
</svg>
